<svg width="34" height="34" viewBox="0 0 34 34" fill="none" xmlns="http://www.w3.org/2000/svg">
<path d="M33.944 33H24.984V25.384L24.472 25.256V14.056C24.472 11.9653 23.9387 10.5573 22.872 9.832C21.848 9.10667 20.056 8.744 17.496 8.744C15.064 8.744 13.3147 9.10667 12.248 9.832C11.1813 10.5573 10.648 11.8373 10.648 13.672V13.928H0.984V13.736C0.984 11.0907 1.688 8.76533 3.096 6.76C4.504 4.712 6.488 3.13333 9.048 2.024C11.6507 0.871998 14.7013 0.295998 18.2 0.295998C21.784 0.295998 24.728 0.871998 27.032 2.024C29.3787 3.176 31.1067 4.79733 32.216 6.888C33.368 8.936 33.944 11.368 33.944 14.184V33ZM11.416 33.64C7.96 33.64 5.25067 32.872 3.288 31.336C1.32533 29.8 0.344 27.7093 0.344 25.064C0.344 23.4427 0.728 22.056 1.496 20.904C2.264 19.752 3.416 18.8347 4.952 18.152C6.488 17.4267 8.408 16.936 10.712 16.68L25.112 15.208V20.712L13.336 22.056C12.184 22.1413 11.3307 22.376 10.776 22.76C10.264 23.1013 10.008 23.656 10.008 24.424C10.008 25.2773 10.3493 25.896 11.032 26.28C11.7147 26.664 12.76 26.856 14.168 26.856C16.472 26.856 18.3707 26.6427 19.864 26.216C21.3573 25.7893 22.488 25.1067 23.256 24.168C24.0667 23.1867 24.472 21.8853 24.472 20.264L25.368 20.2V25.64H24.472C23.7467 28.1147 22.2747 30.0773 20.056 31.528C17.88 32.936 15 33.64 11.416 33.64Z" fill="#FC2846"/>
</svg>
